<?xml version="1.0" encoding="utf-8"?>
<!-- Generator: Adobe Illustrator 16.0.0, SVG Export Plug-In . SVG Version: 6.00 Build 0)  -->
<!DOCTYPE svg PUBLIC "-//W3C//DTD SVG 1.1//EN" "http://www.w3.org/Graphics/SVG/1.1/DTD/svg11.dtd">
<svg version="1.1" id="Layer_1" xmlns="http://www.w3.org/2000/svg" xmlns:xlink="http://www.w3.org/1999/xlink" x="0px" y="0px"
	 width="24px" height="24px" viewBox="0 0 24 24" enable-background="new 0 0 24 24" xml:space="preserve">
<path fill="#FFFFFF" d="M17.25,7.288v1.269c0,0.297-0.241,0.539-0.538,0.539h-1.269c-0.299,0-0.539-0.242-0.539-0.539V7.288
	c0-0.297,0.24-0.538,0.539-0.538h1.269C17.009,6.75,17.25,6.991,17.25,7.288z M12,14.691c1.486,0,2.693-1.205,2.693-2.692
	c0-1.487-1.207-2.69-2.693-2.69c-1.487,0-2.691,1.204-2.691,2.691C9.309,13.486,10.513,14.691,12,14.691z M16.262,11.4
	c0.027,0.196,0.045,0.396,0.045,0.599c0,2.38-1.928,4.308-4.307,4.308S7.693,14.379,7.693,12c0-0.204,0.018-0.403,0.046-0.599
	c0.027-0.194,0.066-0.383,0.118-0.567H6.75v5.879c0,0.297,0.241,0.538,0.538,0.538h9.424c0.297,0,0.538-0.241,0.538-0.538v-5.879
	h-1.107C16.193,11.018,16.232,11.207,16.262,11.4z M24,12c0,6.627-5.373,12-12,12S0,18.627,0,12S5.373,0,12,0S24,5.373,24,12z
	 M19,6.615C19,5.723,18.277,5,17.385,5H6.615C5.723,5,5,5.723,5,6.615v10.769C5,18.277,5.723,19,6.615,19h10.77
	C18.277,19,19,18.277,19,17.384V6.615z"/>
</svg>
